<?xml version="1.0" encoding="UTF-8" standalone="no"?>
<svg
   xmlns:dc="http://purl.org/dc/elements/1.1/"
   xmlns:cc="http://creativecommons.org/ns#"
   xmlns:rdf="http://www.w3.org/1999/02/22-rdf-syntax-ns#"
   xmlns:svg="http://www.w3.org/2000/svg"
   xmlns="http://www.w3.org/2000/svg"
   xmlns:sodipodi="http://sodipodi.sourceforge.net/DTD/sodipodi-0.dtd"
   xmlns:inkscape="http://www.inkscape.org/namespaces/inkscape"
   version="1.1"
   width="15"
   height="15"
   id="svg3251"
   inkscape:version="0.48.4 r9939"
   sodipodi:docname="raspberry_pi.svg">
  <metadata
     id="metadata3285">
    <rdf:RDF>
      <cc:Work
         rdf:about="">
        <dc:format>image/svg+xml</dc:format>
        <dc:type
           rdf:resource="http://purl.org/dc/dcmitype/StillImage" />
      </cc:Work>
    </rdf:RDF>
  </metadata>
  <defs
     id="defs3283" />
  <sodipodi:namedview
     pagecolor="#ffffff"
     bordercolor="#666666"
     borderopacity="1"
     objecttolerance="10"
     gridtolerance="10"
     guidetolerance="10"
     inkscape:pageopacity="0"
     inkscape:pageshadow="2"
     inkscape:window-width="1440"
     inkscape:window-height="853"
     id="namedview3281"
     showgrid="false"
     inkscape:zoom="22.796377"
     inkscape:cx="16.977619"
     inkscape:cy="11.99122"
     inkscape:window-x="1276"
     inkscape:window-y="-4"
     inkscape:window-maximized="1"
     inkscape:current-layer="svg3251" />
  <path
     d="M 4.1437407,0.0073514 C 4.0490218,0.00972229 3.9470112,0.03770539 3.8313266,0.11076266 3.5479769,0.0232945 3.2731798,-0.00709372 3.0273933,0.17097652 2.6480775,0.13158413 2.5246448,0.21288124 2.4311909,0.30776564 2.3478969,0.30640918 1.8078325,0.23923532 1.5601943,0.53487549 0.93781047,0.47595085 0.74113377,0.82783431 0.96399084,1.1559891 0.83688223,1.3134644 0.70517502,1.4690407 1.0024302,1.76925 0.89727951,1.936456 0.96245829,2.1178393 1.210161,2.3373507 c -0.065369,0.235044 0.063128,0.4008819 0.2936035,0.5301404 -0.043111,0.3216452 0.3685757,0.5086712 0.491519,0.5753003 0.047201,0.18742 0.1455865,0.3642694 0.6158323,0.4620723 0.077545,0.27931 0.3601627,0.3275414 0.6338226,0.3861511 C 2.3404256,4.7117663 1.564757,5.2653759 1.5700087,6.6236306 L 1.4375194,6.8127798 c -1.03717018,0.5047931 -1.97027408,2.1271827 -0.51114769,3.4459112 0.0953107,0.412768 0.25515379,0.709239 0.39746899,1.037372 0.2128684,1.322194 1.6021128,1.941315 1.9685323,2.014531 0.5369337,0.327313 1.1088075,0.637879 1.8826605,0.855423 0.729514,0.602124 1.5198375,0.831604 2.3144775,0.831207 0.011648,-5e-6 0.023516,1.06e-4 0.035164,0 0.7946389,4.61e-4 1.5849626,-0.229084 2.3144777,-0.831207 0.7738503,-0.217544 1.3457273,-0.52811 1.8826603,-0.855423 0.366419,-0.07322 1.755663,-0.692337 1.968532,-2.014531 0.142314,-0.328133 0.30216,-0.624604 0.397468,-1.037372 1.459125,-1.3187285 0.526024,-2.9411181 -0.511146,-3.4459112 l -0.13249,-0.1891492 c 0.0051,-1.3582547 -0.77042,-1.9118644 -1.67493,-2.3326158 0.273658,-0.058609 0.556273,-0.1068376 0.633825,-0.3861512 0.470245,-0.097803 0.568626,-0.2746523 0.615827,-0.4620722 0.122946,-0.066629 0.534627,-0.2536551 0.491522,-0.5753003 C 13.740897,2.7382326 13.869393,2.5723947 13.804023,2.3373507 14.051728,2.1178393 14.116908,1.936456 14.011754,1.7692499 14.30901,1.4690406 14.1773,1.3134643 14.050188,1.1559891 14.273045,0.82783428 14.076372,0.47595045 13.453985,0.53487546 13.206353,0.23923476 12.666284,0.30638596 12.582996,0.30776502 12.489541,0.21287871 12.366108,0.13158586 11.986792,0.17097591 11.741006,-0.00709325 11.46621,0.02329449 11.182861,0.11076254 10.846325,-0.1017636 10.62353,0.06859599 10.369112,0.13301586 9.9615317,0.02645892 9.8683875,0.17240826 9.6682262,0.23184482 9.2239705,0.1566964 9.0889203,0.32030135 8.8757422,0.49298822 l -0.247804,-0.003928 C 7.9576896,0.80516836 7.6247135,1.448821 7.5066835,1.7797227 7.3885997,1.4487702 7.056377,0.80511293 6.3862469,0.48906112 l -0.247804,0.003927 C 5.9252648,0.32030151 5.7902146,0.15669672 5.3459589,0.23184518 5.1457987,0.17240933 5.0526523,0.02645988 4.6450731,0.13301622 4.4781109,0.09073927 4.3245682,0.00286347 4.1437397,0.00735294 z"
     style="fill:#000000"
     id="path3253"
     inkscape:connector-curvature="0" />
  <path
     d="M 2.8094719,1.3980068 C 4.5877142,2.1316965 5.6214399,2.725194 6.1877829,3.230683 5.8977495,4.1609561 4.3847109,4.2034092 3.8314819,4.1773132 3.94476,4.1351228 4.039275,4.0845816 4.0727892,4.0069202 3.933967,3.9279653 3.4417367,3.9985493 3.0980954,3.8440995 3.2301017,3.8222084 3.2918498,3.8008948 3.3535969,3.7229311 3.02893,3.640061 2.6792126,3.56865 2.4735333,3.4313698 2.5845306,3.4324254 2.6881645,3.4512321 2.8331295,3.3707792 2.5423277,3.2453647 2.2320093,3.145979 1.9909176,2.9542621 2.1412737,2.951317 2.3033815,2.9530799 2.3505137,2.9088279 2.084345,2.7768684 1.859779,2.6301111 1.6739048,2.4695916 1.8843179,2.4899141 1.9731744,2.4724207 2.0240375,2.4430886 1.8228426,2.278172 1.5682067,2.1389174 1.4467916,1.9356935 1.6030209,1.9787917 1.7459565,1.9952813 1.8489711,1.9319144 1.7806006,1.8084838 1.4876723,1.7356801 1.3190403,1.4472409 c 0.1644668,0.012762 0.3389012,0.02872 0.3737903,0 C 1.6163538,1.1982483 1.4853629,1.0583144 1.356892,0.9133405 1.7088912,0.9092125 2.2421915,0.9143965 2.2180308,0.8906238 L 2.00038,0.71266296 c 0.3438219,-0.0740833 0.6956373,0.0119009 0.9510373,0.0757343 0.1146774,-0.0724207 -0.00201,-0.16398961 -0.1419454,-0.25748361 0.2921958,0.031221 0.5562285,0.0849771 0.7948958,0.15903442 C 3.7318821,0.59780652 3.5215704,0.50567126 3.4198388,0.41353245 3.8712676,0.48207111 4.0625183,0.57837476 4.2525873,0.67480226 4.3904911,0.5690144 4.260514,0.47911742 4.1674226,0.38702544 4.5077917,0.48791381 4.6831129,0.6181517 4.8676902,0.74674608 4.930269,0.67916211 5.0266749,0.62962337 4.9102726,0.46654305 5.1519371,0.57802197 5.3339569,0.70938826 5.4685926,0.85655483 5.618116,0.7803603 5.5576784,0.67616462 5.5584922,0.5801393 5.8096435,0.74363701 5.9690287,0.91762615 6.1641275,1.087532 6.2034335,1.0646381 6.2378354,0.98696886 6.2682211,0.8641271 6.8674115,1.3293286 7.7140497,2.5010585 6.4858709,2.9656478 5.4411651,2.2756089 4.1928896,1.7742067 2.809474,1.3980268 z"
     style="fill:#75a928"
     id="path3255"
     inkscape:connector-curvature="0" />
  <path
     d="M 12.2449,1.3980068 C 10.466657,2.1316965 9.4329315,2.725194 8.8665884,3.230683 9.156623,4.1609561 10.66966,4.2034092 11.22289,4.1773132 c -0.113279,-0.04219 -0.207794,-0.092731 -0.241308,-0.170393 0.138823,-0.078955 0.631052,-0.00837 0.974694,-0.1628207 -0.132006,-0.021891 -0.193755,-0.043205 -0.255501,-0.1211684 0.324666,-0.08287 0.674383,-0.1542811 0.880064,-0.2915613 -0.110997,0.00105 -0.214629,0.019862 -0.359596,-0.06059 0.290801,-0.1254146 0.601119,-0.2248003 0.842212,-0.4165171 -0.150357,-0.00294 -0.312464,-0.00118 -0.359597,-0.045434 0.266168,-0.1319596 0.490736,-0.2787168 0.676607,-0.4392363 -0.210412,0.020322 -0.299268,0.00283 -0.35013,-0.026503 0.201194,-0.1649167 0.455828,-0.3041713 0.577246,-0.5073951 -0.156229,0.043098 -0.299166,0.059588 -0.402182,-0.00378 0.06837,-0.1234306 0.361298,-0.1962343 0.529931,-0.4846736 -0.164465,0.012763 -0.338901,0.02872 -0.37379,0 0.07648,-0.2489925 0.207467,-0.3889265 0.33594,-0.53390035 -0.351998,-0.004128 -0.885301,0.001056 -0.86114,-0.0227166 L 13.05399,0.71266281 C 12.71017,0.63857941 12.358355,0.72456371 12.102954,0.78839711 11.988279,0.71597641 12.104954,0.6244075 12.2449,0.5309135 11.952704,0.5621349 11.688673,0.615891 11.450002,0.68994834 11.32249,0.59780994 11.532792,0.5056744 11.634532,0.4135356 11.183104,0.4820742 10.991852,0.57837789 10.801783,0.67480539 10.663881,0.56901754 10.793783,0.47912056 10.886943,0.38702857 10.546578,0.48791693 10.371256,0.61815484 10.186679,0.74674922 10.124102,0.67916477 10.027691,0.6296265 10.144099,0.4665462 9.9024375,0.5780224 9.7204178,0.70938869 9.5857809,0.85655525 9.4362576,0.78036061 9.4966951,0.67616503 9.4958813,0.58013973 9.244729,0.74363743 9.0853438,0.91762656 8.8902449,1.0875324 8.850939,1.0646387 8.816537,0.98696959 8.7861512,0.86412752 8.1869621,1.329329 7.3403239,2.501059 8.5685015,2.9656483 9.6132053,2.2756089 10.861483,1.7742067 12.244899,1.3980268 z"
     style="fill:#75a928"
     id="path3257"
     inkscape:connector-curvature="0" />
  <path
     d="m 9.6807261,10.871003 a 2.1300424,1.5718693 0 0 1 -4.2600848,0 2.1300424,1.5718693 0 1 1 4.2600848,0 z"
     style="fill:#bc1142"
     id="path3259"
     inkscape:connector-curvature="0" />
  <path
     d="M 6.317982,6.38068 A 1.6602856,2.0756693 68.397935 0 1 3.8326011,9.3905613 1.6602856,2.0756693 68.397935 0 1 6.317982,6.38068 z"
     style="fill:#bc1142"
     id="path3261"
     inkscape:connector-curvature="0" />
  <path
     d="M 8.7003651,6.2969048 A 2.0756692,1.6602853 21.602069 1 0 11.185747,9.306786 2.0756692,1.6602853 21.602069 0 0 8.7003651,6.2969048 z"
     style="fill:#bc1142"
     id="path3263"
     inkscape:connector-curvature="0" />
  <path
     d="M 1.9070624,7.1372835 C 2.8600507,6.9329355 2.2287424,10.292185 1.4534342,10.016549 0.60061308,9.4675562 0.32591626,7.8598517 1.9070624,7.1372835 z"
     style="fill:#bc1142"
     id="path3265"
     inkscape:connector-curvature="0" />
  <path
     d="m 12.918889,7.0953965 c -0.952991,-0.204348 -0.321682,3.1549015 0.453626,2.8792646 0.85282,-0.5489925 1.127517,-2.1566975 -0.453626,-2.8792646 z"
     style="fill:#bc1142"
     id="path3267"
     inkscape:connector-curvature="0" />
  <path
     d="M 9.6813877,4.593986 C 11.325823,4.3717688 12.69406,5.153651 12.638982,6.5806708 12.58489,7.1277462 9.0756034,4.675434 9.6813877,4.593986 z"
     style="fill:#bc1142"
     id="path3269"
     inkscape:connector-curvature="0" />
  <path
     d="M 5.1378308,4.5520977 C 3.4933936,4.3298806 2.1251571,5.111764 2.1802351,6.5387839 2.2343271,7.0858591 5.743615,4.6335458 5.1378308,4.5520977 z"
     style="fill:#bc1142"
     id="path3271"
     inkscape:connector-curvature="0" />
  <path
     d="M 7.4999933,4.2191389 C 6.5185216,4.1987098 5.5765599,4.8020929 5.5743066,5.1520682 5.5715587,5.5773169 6.3503008,6.0127056 7.5066846,6.0237563 8.6875904,6.0304804 9.4411129,5.6752412 9.444921,5.2363942 9.4492543,4.7391887 8.3709042,4.211458 7.4999933,4.2191389 z"
     style="fill:#bc1142"
     id="path3273"
     inkscape:connector-curvature="0" />
  <path
     d="m 7.5599257,12.939322 c 0.8557179,-0.02988 2.0039193,0.220581 2.0061684,0.552834 0.014194,0.322643 -1.041327,1.051599 -2.062947,1.037508 -1.0580132,0.03652 -2.0954697,-0.693567 -2.0818727,-0.946633 -0.015832,-0.371037 1.2882833,-0.660734 2.1386513,-0.643709 z"
     style="fill:#bc1142"
     id="path3275"
     inkscape:connector-curvature="0" />
  <path
     d="m 4.3992644,10.970332 c 0.6092329,0.587385 0.8869451,1.619355 0.3785231,1.923554 -0.4809976,0.23222 -1.6490802,0.136587 -2.4793206,-0.817889 -0.5599256,-0.800927 -0.4877596,-1.615953 -0.094634,-1.855395 0.5879121,-0.2866012 1.4962731,0.100509 2.1954288,0.74973 z"
     style="fill:#bc1142"
     id="path3277"
     inkscape:connector-curvature="0" />
  <path
     d="m 10.598654,10.784102 c -0.6591599,0.617876 -1.0262133,1.744818 -0.545343,2.107843 0.459776,0.281979 1.694014,0.242562 2.605711,-0.769806 0.662015,-0.679933 0.440195,-1.815456 0.06204,-2.116897 -0.561733,-0.3477111 -1.368127,0.09728 -2.122413,0.77886 z"
     style="fill:#bc1142"
     id="path3279"
     inkscape:connector-curvature="0" />
</svg>
