<?xml version="1.0" encoding="UTF-8" standalone="no"?>
<svg
   xmlns:dc="http://purl.org/dc/elements/1.1/"
   xmlns:cc="http://creativecommons.org/ns#"
   xmlns:rdf="http://www.w3.org/1999/02/22-rdf-syntax-ns#"
   xmlns:svg="http://www.w3.org/2000/svg"
   xmlns="http://www.w3.org/2000/svg"
   xmlns:sodipodi="http://sodipodi.sourceforge.net/DTD/sodipodi-0.dtd"
   xmlns:inkscape="http://www.inkscape.org/namespaces/inkscape"
   height="45"
   width="45"
   id="svg3054"
   version="1.1"
   inkscape:version="0.48.2 r9819"
   sodipodi:docname="temperature.svg">
  <metadata
     id="metadata3062">
    <rdf:RDF>
      <cc:Work
         rdf:about="">
        <dc:format>image/svg+xml</dc:format>
        <dc:type
           rdf:resource="http://purl.org/dc/dcmitype/StillImage" />
        <dc:title />
      </cc:Work>
    </rdf:RDF>
  </metadata>
  <defs
     id="defs3060" />
  <sodipodi:namedview
     pagecolor="#ffffff"
     bordercolor="#666666"
     borderopacity="1"
     objecttolerance="10"
     gridtolerance="10"
     guidetolerance="10"
     inkscape:pageopacity="0"
     inkscape:pageshadow="2"
     inkscape:window-width="1004"
     inkscape:window-height="662"
     id="namedview3058"
     showgrid="false"
     inkscape:zoom="5.3929307"
     inkscape:cx="17.104086"
     inkscape:cy="29.525575"
     inkscape:window-x="201"
     inkscape:window-y="0"
     inkscape:window-maximized="0"
     inkscape:current-layer="svg3054"
     showguides="true"
     inkscape:guide-bbox="true" />
  <path
     d="m 13.323229,2.3377868 c -1.054228,0.025038 -1.982993,0.3530043 -2.723566,0.9380069 -0.923539,0.7302096 -1.52471,1.830114 -1.52471,3.1036 l 0,25.1926583 c -1.848819,1.330233 -2.931797,3.353123 -2.939639,5.554601 -0.0078,2.917502 1.852304,5.35682 4.464349,6.389128 0.845995,0.334645 1.755593,0.543276 2.723566,0.548284 0.87039,0.005 1.71203,-0.147712 2.476999,-0.417263 2.762772,-0.964712 4.688262,-3.530043 4.737924,-6.389962 0.03746,-2.240701 -1.044644,-4.322008 -2.940511,-5.684788 l 0,-25.3754189 c 0,-1.3452556 -0.715306,-2.471865 -1.797413,-3.1553416 -0.696139,-0.441464 -1.543877,-0.6818069 -2.44999,-0.7035047 z m 0,1.7992367 c 0.50446,0.012519 0.999337,0.1452078 1.38792,0.3905584 0.602914,0.3813779 1.008051,1.0239624 1.008051,1.7742009 l 0,26.2875552 c 1.746881,0.834526 2.939639,2.565331 2.939639,4.563186 0,2.81402 -2.398586,5.085599 -5.33561,5.085599 -2.937897,0 -5.309474,-2.271579 -5.309474,-5.085599 0,-1.99702 1.192759,-3.72866 2.940511,-4.563186 l 0,-26.2099443 c 0,-0.7093464 0.329337,-1.3143776 0.844253,-1.7207916 0.412108,-0.3262994 0.937478,-0.5073914 1.52471,-0.5215786 z m -1.416673,12.3147925 0,16.736711 c -1.712902,0.568313 -2.939639,2.12971 -2.939639,3.963997 0,2.314974 1.93943,4.199332 4.356312,4.199332 2.416881,0 4.38332,-1.884358 4.38332,-4.199332 0,-1.834287 -1.226737,-3.395684 -2.94051,-3.963997 l -0.17263,-16.736711 z"
     id="path3056"
     inkscape:connector-curvature="0"
     sodipodi:nodetypes="ccscccccccscccccscssscsccccsssccc" />
  <path
     style="fill:#000000"
     inkscape:connector-curvature="0"
     id="path4"
     d="m 24.633102,40.446603 c 0,4.080594 13.253124,4.080594 13.253124,0 l -5.005198,0.61101 -0.06682,-30.860435 c -1.404791,0.08184 -0.751922,-0.01051 -3.079089,-0.03117 l -0.219024,31.013809 z"
     sodipodi:nodetypes="ccccccc" />
  <path
     inkscape:connector-curvature="0"
     style="fill:none;stroke:#000000;stroke-width:1.66299999;stroke-miterlimit:4;stroke-dasharray:none"
     id="path6"
     d="m 27.805273,41.344549 0,-37.6232895 c 0,-1.0201485 6.908783,-0.8979465 6.908783,0.122202 l 0,37.9898955"
     sodipodi:nodetypes="cssc" />
  <path
     inkscape:connector-curvature="0"
     style="fill:none;stroke:#000000;stroke-width:1.66299999;stroke-miterlimit:4;stroke-dasharray:none"
     id="path8"
     d="m 24.571984,31.664519 0.06112,8.782084 c 0.0284,4.080495 13.253124,4.080594 13.253124,0 l 0,-8.782084"
     sodipodi:nodetypes="cssc" />
  <rect
     style="fill:#000000;fill-opacity:1"
     id="rect3076"
     width="13.447832"
     height="5.497705"
     x="24.461966"
     y="35.98003" />
</svg>
