<?xml version="1.0" encoding="UTF-8" standalone="no"?>
<svg id="svg2" xmlns:rdf="http://www.w3.org/1999/02/22-rdf-syntax-ns#" xmlns="http://www.w3.org/2000/svg" height="45" width="45" version="1.1" xmlns:cc="http://creativecommons.org/ns#" xmlns:dc="http://purl.org/dc/elements/1.1/" viewBox="0 0 249.74425 249.75">
 <metadata id="metadata230">
  <rdf:RDF>
   <cc:Work rdf:about="">
    <dc:format>image/svg+xml</dc:format>
    <dc:type rdf:resource="http://purl.org/dc/dcmitype/StillImage"/>
    <dc:title/>
   </cc:Work>
  </rdf:RDF>
 </metadata>
 <path id="path4" fill="#000" d="m15.651,138.23,1.3382-3.4971,1.0705-1.6319,0.80289-1.632,1.8734-3.2639,1.8734-3.2639,2.4087-3.0308,2.141-3.0308,2.4087-3.0308,2.6763-3.0308,2.4087-2.5645,2.9439-3.0308,2.6763-2.5645,2.9439-2.3314,2.9439-2.5645,3.2116-2.5645,3.2116-2.0982,3.2116-2.3314,3.7468-2.0982,3.4792-1.8651,3.4792-1.8651,3.4792-1.632,3.7468-1.8651,4.0145-1.632,3.7468-1.3988,4.0145-1.1657,4.0145-1.1657,4.0145-1.1657,4.2821-0.6994,4.2821-0.93256,4.2821-0.6994,4.0145-0.46629,4.5497-0.46626,4.5497-0.23314,0-6.9941,12.311,0,0,6.9941,2.141,0.23314,2.141,0,4.5497,0.6994,4.2821,0.46628,4.2821,0.6994,4.0144,0.93256,4.0145,0.69941,4.0144,1.1657,4.0145,1.1657,3.7468,1.3988,4.0144,1.3988,3.7468,1.3988,3.7468,1.632,3.7468,1.8651,3.4792,1.8651,3.4792,2.0982,3.2116,2.0982,3.4792,2.0982,2.9439,2.3314,3.2116,2.3314,2.9439,2.3314,2.9439,2.7976,2.6763,2.3314,2.944,3.0308,2.4087,2.5645,2.4087,2.7976,2.4087,3.2639,2.4087,3.0308,2.141,3.0308,1.8734,3.0308,1.8734,3.2639,1.8734,3.2639,1.3381,3.4971-1.0705-1.1657-1.0705-0.93254-1.0705-1.3988-1.6058-0.69941-2.4087-1.8651-1.0705-0.46628-0.53525-0.46627-1.6058-0.69942-3.2116-1.1657-1.6058-0.46628-1.6058-0.46627-1.6058-0.23315-2.141-0.23313-1.8734-0.23314-1.6058,0-3.2116,0-1.3382,0.23314-1.6058,0.23313-1.3382,0.46629-1.3382,0.23313-2.9439,0.93256-2.4087,1.1657-2.6763,1.1657-2.4087,1.3988-1.0705,0.93256-1.0705,0.93255-2.141-1.8651-2.141-1.3988-1.3382-0.69941-1.3382-0.46628-1.3382-0.6994-1.3382-0.46627-2.6763-0.93256-1.6058-0.23313-1.3382-0.46629-2.6763-0.46627-3.2116,0-3.2116,0-1.3382,0.23314-1.6058,0.23313-1.3382,0.46629-1.3382,0.23313-2.9439,0.93256-2.6763,1.1657-2.4087,1.1657-2.4087,1.3988-1.0705,0.93256-1.0705,0.93255-1.3382-1.1657-1.6058-1.3988-1.8734-0.93255-1.8734-0.69941-1.8734-0.93254-1.8734-0.93255-2.1411-0.46628-0.80288-0.23313-1.0705-0.23314,0,85.095,0,2.5645,0,2.0982-0.26763,2.3314-0.26762,2.0982-0.53526,1.8651-0.53526,1.8651-0.53526,1.632-0.53527,1.3988-1.0705,1.3988-0.53527,1.1657-1.0705,1.1657-1.0705,1.3988-1.3382,0.93256-1.3382,0.93253-1.0705,0.69943-1.6058,0.93254-1.6058,0.69941-1.6058,0.69941-1.8734,0.46629-1.6058,0.23313-1.8734,0.46627-1.8734,0.23314-2.141,0-1.8734,0.23313-2.9439-0.23313-2.9439-0.23314-2.6763-0.6994-2.4087-0.46629-2.141-0.93253-2.141-0.93256-1.8734-1.3988-1.8734-1.3988-1.6058-1.632-0.53526-0.93256-0.8029-0.93254-1.0705-1.8651-0.53526-1.3988-0.26763-0.93255-0.80289-2.3314-0.26763-2.5645-0.26762-2.7976-0.26763-3.0308,11.24-1.3988,0.26763,2.3314,0.26764,2.0982,0.26762,1.8651,0.53526,1.632,0.26762,1.632,0.80289,1.3988,0.53526,0.46627,0.26763,0.46627,0.80289,1.1657,1.0705,0.69941,0.8029,0.69941,1.3382,0.46628,1.0705,0.69941,1.3382,0.23314,1.3381,0.46627,1.6058,0.23314,1.3382,0,2.4087-0.23314,2.141-0.46627,1.8734-0.46629,1.6058-0.69939,0.80289-0.69942,0.80288-0.46627,1.3382-1.1657,0.53526-0.69941,0.53527-0.69941,0.80289-1.3988,0.26762-0.93255,0.26763-0.93255,0.26764-2.5645,0.26763-2.5645,0.26762-3.2639,0-86.028-1.3381,0.23315-1.0705,0.23314-2.1411,0.69941-2.141,0.46628-2.141,0.93255-1.8734,0.93253-1.8734,1.1657-1.6058,1.1657-1.6058,1.3988-2.141-1.8651-2.4087-1.3988-1.0705-0.69941-1.3382-0.46628-1.3382-0.6994-1.3382-0.46627-2.9439-0.93256-1.3382-0.23313-1.3382-0.46629-2.9439-0.46627-3.2116,0-3.2116,0-1.3382,0.23314-1.3382,0.23313-1.3382,0.46629-1.8734,0.23313-2.4087,0.93256-2.6763,1.1657-2.6763,1.1657-2.141,1.3988-1.3382,0.93256-0.80289,0.93255-2.141-1.8651-2.4087-1.3988-1.0705-0.69941-1.6058-0.46628-1.0705-0.6994-1.3382-0.46627-2.9439-0.93256-1.3382-0.23313-1.3382-0.46629-3.2116-0.46627-2.9439,0-1.6058,0-1.8734,0.23314-2.141,0.23313-1.6058,0.23315-3.2116,0.93255-1.6058,0.46628-1.6058,0.69939-3.2116,1.632-1.3382,0.69941-1.0705,1.1657-1.6058,0.69941-1.0705,1.3988-2.141,2.0982z"/>
 <path id="path6" fill="#000" d="m14.848,137.99,1.6058-3.497,0.80289-1.632,1.0705-1.632,1.8734-3.4971,1.8734-3.2639,2.4087-3.0308,1.8734-3.0308,2.6763-3.0308,2.4087-3.0308,2.6763-2.7977,2.6763-2.5645,2.9439-2.7977,2.9439-2.5645,2.9439-2.5645,3.2116-2.0982,3.2116-2.5645,3.4792-2.0982,3.4792-2.0982,3.4792-1.8651,3.4792-2.0982,3.7468-1.632,3.7468-1.632,3.7468-1.632,4.0145-1.3988,4.0145-1.3988,4.0145-1.1657,4.0145-0.93256,4.2821-1.1657,4.2821-0.6994,4.5497-0.69942,4.0145-0.46627,4.5497-0.46628,4.5497-0.23314,0,1.3988-4.5497,0.23314-4.2821,0.46628-4.2821,0.46627-4.0145,0.69941-4.2821,0.69941-4.2821,1.1657-4.0145,0.93255-4.0145,1.1657-4.0145,1.3988-3.7468,1.3988-3.7468,1.3988-3.7468,1.632-3.4792,1.632-3.7468,2.0982-3.4792,1.8651-3.4792,2.0982-3.2116,2.0982-3.2116,2.3314-3.2116,2.3314-2.6763,2.3314-3.2116,2.7976-2.6763,2.5645-2.6763,2.7976-2.6763,2.7976-2.4087,2.7977-2.4087,2.7976-2.4087,3.2639-2.141,3.0308-1.8734,3.2639-1.8734,3.2639-1.0705,1.632-0.80289,1.632-1.3382,3.2639z"/>
 <path id="path8" fill="#000" d="m118.42,66.421,1.6058,0,0,6.9941-1.6058,0z"/>
 <ellipse id="ellipse10" rx="3" ry="3" transform="matrix(0.2676305,0,0,0.23313723,14.848267,8.8356082)" cy="277" cx="390" fill="#000"/>
 <path id="path12" fill="#000" d="m119.49,65.721,12.311,0,0,1.3988-12.311,0z"/>
 <ellipse id="ellipse14" rx="3" ry="3" transform="matrix(0.2676305,0,0,0.23313723,14.848267,8.8356082)" cy="247" cx="390" fill="#000"/>
 <path id="path16" fill="#000" d="m131,66.421,1.6058,0,0,6.9941-1.6058,0z"/>
 <ellipse id="ellipse18" rx="3" ry="3" transform="matrix(0.2676305,0,0,0.23313723,14.848267,8.8356082)" cy="247" cx="437" fill="#000"/>
 <path id="path20" fill="#000" d="m131.8,72.948,2.141,0,2.141,0.23314,4.5497,0.23314,4.2821,0.6994,4.2821,0.69942,4.0144,0.6994,4.2821,1.1657,4.0145,0.93255,4.0145,1.1657,4.0144,1.3988,3.7468,1.3988,3.7468,1.632,3.7468,1.632,3.7468,1.8651,3.7468,1.8651,3.4792,1.8651,3.2116,2.0982,3.2116,2.3314,3.4792,2.3314,2.9439,2.3314,3.2116,2.5645,2.6763,2.3314,2.9439,2.7976,2.6763,2.7976,2.6763,2.5645,2.4087,3.0308,2.4087,3.0308,2.141,3.0308,2.141,3.0308,1.8734,3.2639,1.8734,3.2639,1.8734,3.2639,1.6058,3.497-1.6058,0.46627-1.6058-3.2639-1.6058-3.2639-1.8734-3.2639-1.8734-3.0308-2.141-3.2639-2.4087-3.0308-2.4087-3.0308-2.141-2.5645-2.6763-3.0308-2.6763-2.5645-2.6763-2.5645-2.9439-2.5645-2.9439-2.5645-3.2116-2.3314-2.9439-2.3314-3.2116-2.0982-3.4792-1.8651-3.4792-2.0982-3.4792-1.8651-3.4792-1.632-3.7468-1.8651-3.7468-1.3988-3.7468-1.3988-4.0145-1.3988-4.0144-1.1657-3.7468-0.93255-4.2821-1.1657-4.0145-0.6994-4.2821-0.69942-4.2821-0.46627-4.2821-0.46627-2.141-0.23314-2.141,0z"/>
 <ellipse id="ellipse22" rx="3" ry="3" transform="matrix(0.2676305,0,0,0.23313723,14.848267,8.8356082)" cy="278" cx="437" fill="#000"/>
 <path id="path24" fill="#000" d="m233.77,138.69-1.0705-1.1657-1.3382-1.1657-1.0705-0.93254-1.0705-0.93255-2.9439-1.632-0.80288-0.46627-0.26763-0.46628-1.6058-0.69941-3.2116-1.1657-1.6058-0.69941-1.6058,0-1.6058-0.46628-1.8734-0.23313-1.8734-0.23314-1.6058,0,0-1.3988,1.8734,0.23314,1.8734,0,1.8734,0.23314,1.8734,0.23313,1.6058,0.46627,1.8734,0.69942,2.9439,0.93256,1.6058,0.93255,0.80289,0.46626,0.80288,0.23314,2.6763,1.8651,1.3382,1.1657,1.3382,0.93255,1.0705,1.1657,1.3382,1.1657z"/>
 <ellipse id="ellipse26" rx="3" ry="3" transform="matrix(0.2676305,0,0,0.23313723,14.848267,8.8356082)" cy="555" cx="820" fill="#000"/>
 <path id="path28" fill="#000" d="m210.22,128.44-2.9439,0.23314-1.3382,0.23313-1.6058,0.23313-1.6058,0.23315-1.0705,0.23313-2.9439,0.93254-2.4087,0.93256-2.4087,1.3988-2.4087,1.3988-1.0705,0.69942-0.8029,0.93255-1.3381-1.1657,1.0705-0.69941,1.0705-0.93253,2.4087-1.632,2.6763-1.1657,2.6763-0.93255,2.6763-1.1657,1.6058-0.46627,1.6058,0,1.3382-0.23313,1.6058-0.23314,2.9439-0.23314z"/>
 <ellipse id="ellipse30" rx="3" ry="3" transform="matrix(0.2676305,0,0,0.23313723,14.848267,8.8356082)" cy="510" cx="730" fill="#000"/>
 <path id="path32" fill="#000" d="m188.27,135.9-1.8734-1.632-2.4087-1.3988-1.3382-0.69941-1.0705-0.69941-1.3381-0.46628-1.3382-0.46628-2.6763-0.93254-1.6058-0.23313-1.3382-0.23315-2.6763-0.46626-3.2116-0.23314,0.26763-1.3988,3.2116,0.23314,2.9439,0.46627,1.3382,0,1.6058,0.46627,2.6763,0.93255,1.3382,0.46628,1.6058,0.69942,1.3382,0.6994,1.0705,0.46628,2.4087,1.632,2.141,1.6319z"/>
 <ellipse id="ellipse34" rx="3" ry="3" transform="matrix(0.2676305,0,0,0.23313723,14.848267,8.8356082)" cy="542" cx="651" fill="#000"/>
 <path id="path36" fill="#000" d="m167.67,128.44-2.9439,0.23314-1.6058,0.23313-1.3381,0.23313-1.6058,0.23315-1.0705,0.23313-2.9439,0.93254-2.6763,0.93256-2.141,1.3988-2.4087,1.3988-1.0705,0.69942-1.0705,0.93255-1.3382-1.1657,1.3382-0.69941,1.0705-0.93253,2.4087-1.632,2.6763-1.1657,2.4087-0.93255,2.9439-1.1657,1.6058-0.46627,1.3382,0,1.6058-0.23313,1.6058-0.23314,2.9439-0.23314z"/>
 <ellipse id="ellipse38" rx="3" ry="3" transform="matrix(0.2676305,0,0,0.23313723,14.848267,8.8356082)" cy="510" cx="571" fill="#000"/>
 <path id="path40" fill="#000" d="m145.45,135.9-1.3382-1.3988-1.6058-0.93256-1.6058-0.93255-1.6058-0.93255-1.6058-0.69941-1.8734-0.93254-2.1411-0.46628-1.0705-0.23313-0.80291-0.23315,0-1.3988,1.3382,0.23314,0.80289,0.23313,2.141,0.69942,2.141,0.69941,1.8734,0.93254,1.6058,0.69942,1.8734,1.1657,1.8734,1.1657,1.3382,1.1657z"/>
 <ellipse id="ellipse42" rx="3" ry="3" transform="matrix(0.2676305,0,0,0.23313723,14.848267,8.8356082)" cy="542" cx="491" fill="#000"/>
 <path id="path44" fill="#000" d="m131,128.44,1.6058,0,0,85.095-1.6058,0z"/>
 <ellipse id="ellipse46" rx="3" ry="3" transform="matrix(0.2676305,0,0,0.23313723,14.848267,8.8356082)" cy="513" cx="437" fill="#000"/>
 <path id="path48" fill="#000" d="m132.61,213.53,0,2.5645-0.26764,2.0982,0,2.5645-0.53527,2.0982-0.26763,1.8651-0.53525,1.632-0.53526,1.632-0.53527,1.632-1.8734-0.46628,0.80289-1.3988,0.53526-1.632,0.53525-1.632,0.26764-1.8651,0.53526-2.0982,0-2.3314,0.26763-2.0982,0-2.5645z"/>
 <ellipse id="ellipse50" rx="3" ry="3" transform="matrix(0.2676305,0,0,0.23313723,14.848267,8.8356082)" cy="878" cx="437" fill="#000"/>
 <path id="path52" fill="#000" d="m129.93,229.62-1.0705,1.632-0.80289,1.1657-1.0705,1.1657-1.0705,1.1657-1.3382,1.1657-1.3382,0.93256-1.0705,0.93254-1.8734,0.69943-0.8029-1.1657,1.6058-0.6994,1.0705-0.93255,1.3382-0.93255,1.0705-0.93255,1.3382-0.93254,0.80288-1.3988,0.8029-1.1657,0.53527-1.1657z"/>
 <ellipse id="ellipse54" rx="3" ry="3" transform="matrix(0.2676305,0,0,0.23313723,14.848267,8.8356082)" cy="946" cx="426" fill="#000"/>
 <path id="path56" fill="#000" d="m120.29,238.48-1.6058,0.93253-1.6058,0.46629-1.8734,0.46626-1.8734,0.69941-1.6058,0.23314-2.141,0.23314-1.8734,0.23314-2.141,0-0.26763-1.632,2.141,0,1.8734-0.23313,1.8734,0,1.8734-0.23315,1.6058-0.46628,1.6058-0.69939,1.8734-0.23315,1.6058-0.93256z"/>
 <ellipse id="ellipse58" rx="3" ry="3" transform="matrix(0.2676305,0,0,0.23313723,14.848267,8.8356082)" cy="983" cx="393" fill="#000"/>
 <path id="path60" fill="#000" d="m105.31,241.74-2.9439,0-2.9439-0.46628-2.6763-0.46627-2.4087-0.93254-2.4087-0.69943-2.1411-0.93254-2.141-1.632-1.6058-1.3988,1.0705-0.93256,1.8734,1.3988,1.8734,1.1657,1.8734,1.1657,2.141,0.69941,2.141,0.69941,2.6763,0.46629,2.9439,0.23313,2.9439,0z"/>
 <ellipse id="ellipse62" rx="3" ry="3" transform="matrix(0.2676305,0,0,0.23313723,14.848267,8.8356082)" cy="995" cx="338" fill="#000"/>
 <path id="path64" fill="#000" d="m85.77,235.21-1.3381-1.632-0.8029-0.93254-0.53526-1.1657-1.3382-1.8651-0.53526-1.1657-0.26763-1.1657-0.80289-2.5645-0.53526-2.5645-0.26763-2.7976,0-3.0308,1.6058,0,0,3.0308,0.26763,2.5645,0.53526,2.5645,0.8029,2.3314,0.53526,1.1657,0,0.93255,1.3382,2.0982,0.53526,0.6994,0.53526,0.93255,1.6058,1.632z"/>
 <ellipse id="ellipse66" rx="3" ry="3" transform="matrix(0.2676305,0,0,0.23313723,14.848267,8.8356082)" cy="969" cx="268" fill="#000"/>
 <path id="path68" fill="#000" d="m80.15,215.63,0.26763,1.3988,10.973-1.3988-0.26762-1.3988-10.973,1.3988z"/>
 <ellipse id="ellipse70" rx="3" ry="3" transform="matrix(0.2676305,0,0,0.23313723,14.848267,8.8356082)" cy="890" cx="244" fill="#000"/>
 <path id="path72" fill="#000" d="m92.193,214.93,0.26763,2.3314,0.26763,2.0982,0,1.8651,0.53526,1.632,0.80289,1.3988,0.53527,1.1657,0.26763,0.69942,0.26763,0.23313,1.0705,1.1657-1.6058,0.69943-0.8029-0.93256-0.26762-0.69941-0.53526-0.46627-0.53526-1.3988-0.53526-1.632-0.53528-1.8651-0.53526-1.632,0-2.3314-0.26762-2.3314z"/>
 <ellipse id="ellipse74" rx="3" ry="3" transform="matrix(0.2676305,0,0,0.23313723,14.848267,8.8356082)" cy="884" cx="286" fill="#000"/>
 <path id="path76" fill="#000" d="m95.94,227.52,0.80288,0.46628,1.0705,0.69941,1.0705,0.69941,1.0705,0.23315,1.3382,0.46627,1.3382,0.23312,1.3381,0.23315,1.3382,0,0,1.3988-1.6058,0-1.3382-0.23315-1.6058-0.23313-1.3382-0.23314-1.3382-0.69941-1.3382-0.69941-0.80288-0.46628-1.3382-1.1657z"/>
 <ellipse id="ellipse78" rx="3" ry="3" transform="matrix(0.2676305,0,0,0.23313723,14.848267,8.8356082)" cy="939" cx="301" fill="#000"/>
 <path id="path80" fill="#000" d="m105.31,230.55,2.141,0,2.141-0.46627,1.6058-0.46627,1.8734-0.69942,0.80288,1.1657-1.8734,0.93255-2.141,0.46627-2.141,0.46628-2.4087,0z"/>
 <ellipse id="ellipse82" rx="3" ry="3" transform="matrix(0.2676305,0,0,0.23313723,14.848267,8.8356082)" cy="954" cx="338" fill="#000"/>
 <path id="path84" fill="#000" d="m112.8,228.92,1.0705-0.46627,0.53526-0.46628,1.3382-1.1657,0.53526-0.46627,0.26763-0.69942,0.8029-1.632,1.3381,0.69942-0.53525,1.632-0.53527,0.69941-0.80289,0.69942-1.0705,1.1657-1.0705,0.69942-0.8029,0.46627z"/>
 <ellipse id="ellipse86" rx="3" ry="3" transform="matrix(0.2676305,0,0,0.23313723,14.848267,8.8356082)" cy="946" cx="368" fill="#000"/>
 <path id="path88" fill="#000" d="m117.35,224.25,0.26762-0.93255,0.26764-0.93254,0.26763-2.3314,0.26762-2.5645,0-3.2639,1.6058,0,0,3.2639,0,2.7976-0.53526,2.5645-0.26762,0.93255-0.26763,0.93254z"/>
 <ellipse id="ellipse90" rx="3" ry="3" transform="matrix(0.2676305,0,0,0.23313723,14.848267,8.8356082)" cy="924" cx="386" fill="#000"/>
 <path id="path92" fill="#000" d="m118.42,128.2,1.6058,0,0,86.028-1.6058,0z"/>
 <ellipse id="ellipse94" rx="3" ry="3" transform="matrix(0.2676305,0,0,0.23313723,14.848267,8.8356082)" cy="880" cx="390" fill="#000"/>
 <path id="path96" fill="#000" d="m119.49,128.9-1.0705,0.23313-1.0705,0.23315-2.141,0.46628-1.8734,0.93255-2.141,0.46626-1.8734,1.1657-1.8734,0.93255-1.6058,1.1657-1.6058,1.3988-1.3381-1.1657,1.6058-1.1657,1.8734-1.1657,2.141-1.1657,1.8734-1.1657,2.141-0.69941,2.141-0.69941,2.141-0.69942,1.3382-0.23314,1.0705,0z"/>
 <ellipse id="ellipse98" rx="3" ry="3" transform="matrix(0.2676305,0,0,0.23313723,14.848267,8.8356082)" cy="512" cx="390" fill="#000"/>
 <path id="path100" fill="#000" d="m102.9,135.9-1.8734-1.632-2.4087-1.3988-1.0705-0.69941-1.0705-0.69941-1.6058-0.46628-1.0705-0.46628-2.9439-0.93254-1.3382-0.23313-1.3382-0.23315-2.9439-0.46626-2.9439-0.23314,0.26763-1.3988,2.9439,0.23314,3.2116,0.46627,1.3382,0,1.3381,0.46627,2.9439,0.93255,1.3382,0.46628,1.3382,0.69942,1.6058,0.6994,1.0705,0.46628,2.4087,1.632,2.141,1.6319z"/>
 <ellipse id="ellipse102" rx="3" ry="3" transform="matrix(0.2676305,0,0,0.23313723,14.848267,8.8356082)" cy="542" cx="331" fill="#000"/>
 <path id="path104" fill="#000" d="m82.559,128.44-3.2116,0.23314-1.3382,0.23313-1.6058,0.23313-1.3382,0.23315-1.3382,0.23313-2.6763,0.93254-2.6763,0.93256-2.4087,1.3988-2.4087,1.3988-0.80289,0.69942-1.0705,0.93255-1.3382-1.1657,1.3382-0.69941,1.0705-0.93253,2.4087-1.632,2.4087-1.1657,2.6763-0.93255,2.9439-1.1657,1.6058-0.46627,1.3382,0,1.3382-0.23313,1.6058-0.23314,3.2116-0.23314z"/>
 <ellipse id="ellipse106" rx="3" ry="3" transform="matrix(0.2676305,0,0,0.23313723,14.848267,8.8356082)" cy="510" cx="252" fill="#000"/>
 <path id="path108" fill="#000" d="m60.345,135.9-1.8734-1.632-2.4087-1.3988-1.0705-0.69941-1.3382-0.69941-1.3382-0.46628-1.0705-0.46628-2.9439-0.93254-1.3382-0.23313-1.3382-0.23315-2.9439-0.46626-2.9439-0.23314,0.26763-1.3988,2.9439,0.23314,2.9439,0.46627,1.6058,0,1.3382,0.46627,2.9439,0.93255,1.3382,0.46628,1.3382,0.69942,1.3382,0.6994,1.3382,0.46628,2.4087,1.632,2.141,1.6319z"/>
 <ellipse id="ellipse110" rx="3" ry="3" transform="matrix(0.2676305,0,0,0.23313723,14.848267,8.8356082)" cy="542" cx="172" fill="#000"/>
 <path id="path112" fill="#000" d="m40.006,128.44-1.8734,0-1.8734,0.23314-1.8734,0.23313-1.6058,0.46628-3.2116,0.69941-1.6058,0.69942-1.6058,0.46626-2.9439,1.632-1.3382,0.69941-1.3382,0.93256-1.0705,0.93255-1.0705,0.93254-2.4087,2.3314-1.3382-0.93256,2.141-2.3314,1.6058-0.93255,1.0705-1.1657,1.3382-0.93255,1.6058-0.93255,2.9439-1.632,1.6058-0.46628,1.6058-0.69941,3.4792-0.93256,1.8734-0.23313,1.8734-0.23314,1.8734,0,1.8734-0.23314z"/>
 <ellipse id="ellipse114" rx="3" ry="3" transform="matrix(0.2676305,0,0,0.23313723,14.848267,8.8356082)" cy="510" cx="93" fill="#000"/>
 <ellipse id="ellipse116" rx="3" ry="3" transform="matrix(0.2676305,0,0,0.23313723,14.848267,8.8356082)" cy="555" cx="3" fill="#000"/>
 <path id="path118" fill="#000" d="m83.362,55.696,0.53526-0.46627,0.80289-0.69942,0.53526-0.6994,1.3382-0.69941,2.4087-1.632,2.4087-1.3988,4.5497-2.3314,2.141-1.1657-1.0705,6.761-0.53526,2.5645-0.53526,2.5645-0.80289,2.0982-0.53526,1.3988-0.53527,0.46628-0.53526,0.46628-0.80289,0.69941-1.3382,0.69941-1.0705,0.23314-0.8029,0.23314-0.53526,0-0.53526,0-0.80289-0.23314-1.0705-0.23314-1.3382-0.69941-0.26763-0.23314-0.80289-0.23314-0.8029-1.1657-0.53526-0.6994-0.26763-1.3988-0.26763-0.23314,0-0.69942,0-0.6994,0-0.23314,0.53527-1.3988,0.53526-0.93255z"/>
 <path id="path120" fill="#000" d="m82.826,55.23,0.26762-0.69942,0.8029-0.46627,1.0705-0.69941,1.0705-0.69941,2.4087-1.3988,2.4087-1.632,4.8173-2.5645,1.8734-0.93255,1.0705,1.1657-2.141,0.93255-4.5497,2.5645-2.6763,1.3988-2.4087,1.632-1.0705,0.6994-0.80289,0.46628-0.53526,0.69941-0.53527,0.46628z"/>
 <path id="path122" fill="#000" d="m98.617,46.604-0.80289,6.761-0.53526,2.7976-0.53527,2.5645-0.80288,2.0982-0.80289,1.3988-1.3382-0.46628,0.8029-1.3988,0.26763-2.0982,0.80289-2.3314,0.53526-2.7976,0.80289-6.5278z"/>
 <ellipse id="ellipse124" rx="3" ry="3" transform="matrix(0.2676305,0,0,0.23313723,14.848267,8.8356082)" cy="162" cx="310" fill="#000"/>
 <path id="path126" fill="#000" d="m95.137,62.457-0.53526,0.69941-0.26763,0.23314-1.3382,0.93255-1.0705,0.46627-1.3382,0.46628-0.8029,0-0.80289,0-0.8029,0-0.80289,0-1.0705-0.46628-1.3382-0.46627,0.53526-1.1657,1.3382,0.46628,1.0705,0.23313,0.53526,0,0.53526,0.23314,0.53526-0.23314,0.53527,0,1.0705-0.23313,1.0705-0.46628,0.80289-0.69941,0.26763-0.46628,0.53526-0.46627z"/>
 <ellipse id="ellipse128" rx="3" ry="3" transform="matrix(0.2676305,0,0,0.23313723,14.848267,8.8356082)" cy="228" cx="297" fill="#000"/>
 <path id="path130" fill="#000" d="m84.967,64.322-0.80289-0.46628-0.53526-0.46627-0.80289-0.93255-0.8029-0.93255-0.53526-1.3988,0-0.46627-0.26763-0.69942,0.26763-0.6994,0-0.46629,0.53526-1.3988,0.8029-1.1657,1.3382,0.93255-0.8029,0.93255-0.26763,0.93255,0,0.46628,0,0.46627,0,0.69942,0,0.23314,0.26763,0.93254,0.8029,0.69942,0.80289,0.93255,0.26763,0.46628,0.53526,0.23314z"/>
 <ellipse id="ellipse132" rx="3" ry="3" transform="matrix(0.2676305,0,0,0.23313723,14.848267,8.8356082)" cy="236" cx="263" fill="#000"/>
 <ellipse id="ellipse134" rx="3" ry="3" transform="matrix(0.2676305,0,0,0.23313723,14.848267,8.8356082)" cy="201" cx="256" fill="#000"/>
 <path id="path136" fill="#000" d="m138.76,46.837,0.53526-0.46628,0.53524-0.46627,1.0705-0.93255,1.0705-0.46628,2.4087-1.632,2.6763-1.632,4.2821-2.3314,2.141-1.1657-1.0705,6.761-0.53526,2.7976-0.53527,2.3314-0.53526,2.0982-0.80289,1.3988-0.53525,0.46627-0.26763,0.69941-1.0705,0.46627-1.0705,0.69942-1.3382,0.23314-0.53527,0.23313-0.80288,0-0.53527,0-0.53526,0-1.3382-0.46627-1.0705-0.69942-0.8029-0.23313-0.53525-0.23314-0.53527-0.93255-0.80289-0.93255-0.53525-1.1657,0-0.46627,0-0.69942,0-0.46627,0-0.46628,0.53525-1.3988,0.53527-0.93255z"/>
 <path id="path138" fill="#000" d="m138.23,46.371,0.53527-0.46627,0.80289-0.69941,0.80289-0.69941,1.0705-0.69941,2.4087-1.3988,2.6763-1.632,4.5497-2.5645,2.141-0.93255,0.80289,1.1657-2.141,0.93255-4.5497,2.5645-2.4087,1.632-2.4087,1.3988-1.0705,0.69941-0.80288,0.46627-0.80291,0.69941-0.26761,0.69941z"/>
 <path id="path140" fill="#000" d="m154.28,37.978-1.0705,6.5278-0.53526,2.7976-0.53527,2.5645-0.80289,2.0982-0.53526,1.632-1.6058-0.69941,0.53525-1.3988,0.8029-1.8651,0.80288-2.5645,0.26763-2.5645,1.0705-6.761z"/>
 <ellipse id="ellipse142" rx="3" ry="3" transform="matrix(0.2676305,0,0,0.23313723,14.848267,8.8356082)" cy="125" cx="518" fill="#000"/>
 <path id="path144" fill="#000" d="m150.54,53.598-0.26764,0.69941-0.53526,0.23314-1.0705,0.93256-1.3382,0.69941-1.3382,0.23314-0.53525,0-0.8029,0.23313-1.0705-0.23313-0.53526,0-1.6058-0.23314-1.0705-0.69941,0.8029-1.1657,1.0705,0.46627,1.3382,0.23314,0.26763,0.23314,0.53527,0,0.80288,0,0.26764-0.23314,1.3382-0.23314,0.80289-0.46627,1.0705-0.69941,0.26762-0.46627,0.53527-0.23314z"/>
 <ellipse id="ellipse146" rx="3" ry="3" transform="matrix(0.2676305,0,0,0.23313723,14.848267,8.8356082)" cy="191" cx="505" fill="#000"/>
 <path id="path148" fill="#000" d="m140.1,55.463-0.53525-0.23314-0.26763-0.69942-1.0705-0.6994-0.53525-1.1657-0.53527-1.1657-0.26763-0.6994,0-0.69942,0-0.46627,0.26763-0.69941,0.26763-1.1657,0.53526-1.1657,1.6058,0.69941-0.53527,0.93255-0.53526,1.1657,0,0.23314,0,0.46627,0,0.69942,0.26764,0.46627,0.26762,0.93255,0.53527,0.69941,0.80289,0.93256,0.53526,0.23313,0.53525,0.46627z"/>
 <ellipse id="ellipse150" rx="3" ry="3" transform="matrix(0.2676305,0,0,0.23313723,14.848267,8.8356082)" cy="198" cx="470" fill="#000"/>
 <ellipse id="ellipse152" rx="3" ry="3" transform="matrix(0.2676305,0,0,0.23313723,14.848267,8.8356082)" cy="163" cx="463" fill="#000"/>
 <path id="path154" fill="#000" d="m157.76,17.462,0.53525-0.23314,0.8029-0.93256,0.80289-0.69941,1.0705-0.46627,2.141-1.632,2.6763-1.3988,4.8174-2.5645,1.8734-0.69941-1.0705,6.2947-0.53525,2.5645-0.53526,2.7976-0.8029,1.8651-0.53526,1.632-0.53526,0.23313-0.53526,0.46628-1.0705,0.93255-1.0705,0.46627-1.0705,0.23314-0.53525,0.23313-0.8029,0-0.53526,0-0.8029-0.23313-1.0705-0.23314-1.3382-0.46627-0.53526-0.23314-0.26763-0.46628-1.0705-0.93255-0.53526-0.93256-0.26764-1.1657-0.26762-0.46628,0-0.69941,0-0.46627,0.26762-0.46628,0.26764-1.1657,0.53526-1.1657z"/>
 <path id="path156" fill="#000" d="m157.23,17.229,0.26763-0.69941,0.80288-0.69941,0.8029-0.69941,1.3382-0.69941,2.4087-1.3988,2.4087-1.632,4.8173-2.5645,1.8734-0.6994,0.8029,0.93255-1.8734,1.1657-4.5497,2.3314-2.6763,1.3988-2.4087,1.632-0.80289,0.69941-1.0705,0.69941-0.53527,0.46628-0.53527,0.46628z"/>
 <path id="path158" fill="#000" d="m173.29,8.8356-1.0705,6.5278-0.53527,2.5645-0.80288,2.7976-0.53526,1.8651-0.8029,1.3988-1.3382-0.23314,0.8029-1.3988,0.26763-2.0982,0.80289-2.5645,0.53526-2.5645,1.0705-6.2947z"/>
 <ellipse id="ellipse160" rx="3" ry="2" transform="matrix(0.2676305,0,0,0.23313723,14.848267,8.8356082)" cy="-1" cx="589" fill="#000"/>
 <path id="path162" fill="#000" d="m169.54,24.223-0.53526,0.46628-0.26763,0.69941-1.3382,0.6994-1.0705,0.69941-1.3382,0.46628-0.80288,0-0.8029,0-0.53526,0-1.0705,0-1.0705-0.46628-1.6058-0.69941,0.80289-1.1657,1.0705,0.69941,1.3382,0,0.53526,0,0.53526,0.23313,0.53526-0.23313,0.53526,0,1.0705,0,1.0705-0.69941,0.8029-0.69941,0.53526-0.23313,0.26762-0.46628z"/>
 <ellipse id="ellipse164" rx="3" ry="3" transform="matrix(0.2676305,0,0,0.23313723,14.848267,8.8356082)" cy="64" cx="576" fill="#000"/>
 <path id="path166" fill="#000" d="m159.1,26.088-0.53526-0.46627-0.53526-0.23314-0.80289-1.1657-0.8029-0.93255-0.53526-1.1657,0-0.69941,0-0.69941,0-0.46628,0-0.6994,0.53526-1.1657,0.8029-1.1657,1.3382,0.69941-0.80289,0.93255-0.26763,1.1657-0.26763,0.46628,0,0.23314,0.26763,0.46628,0,0.69941,0.26763,0.69941,0.80289,0.93255,0.53526,0.69941,0.53526,0.46628,0.53526,0.23314z"/>
 <ellipse id="ellipse168" rx="3" ry="3" transform="matrix(0.2676305,0,0,0.23313723,14.848267,8.8356082)" cy="72" cx="541" fill="#000"/>
 <ellipse id="ellipse170" rx="3" ry="3" transform="matrix(0.2676305,0,0,0.23313723,14.848267,8.8356082)" cy="38" cx="534" fill="#000"/>
 <path id="path172" fill="#000" d="m193.63,34.014,0.53525-0.69941,0.8029-0.69941,0.80289-0.46627,1.0705-0.93256,2.4087-1.3988,2.6763-1.3988,4.2821-2.7976,2.141-0.93255-0.80289,6.761-0.80289,2.7976-0.53526,2.3314-0.53526,2.0982-0.80289,1.3988-0.53527,0.69941-0.26762,0.23314-1.0705,0.6994-1.0705,0.69941-1.3381,0.23314-0.53527,0-0.53527,0-0.80288,0-0.53527,0-1.3382-0.23314-1.0705-0.46628-0.80289-0.46627-0.53526-0.46627-0.53526-0.69942-0.80289-0.93255-0.26764-1.1657-0.26761-0.69942,0-0.46627,0-0.46627,0-0.69941,0.53525-0.93256,0.53526-0.93255z"/>
 <path id="path174" fill="#000" d="m193.09,33.315,0.53526-0.69941,0.53525-0.46627,1.0705-0.69941,1.0705-0.69941,2.4087-1.632,2.6763-1.3988,4.5497-2.5645,1.8734-1.1657,1.0705,1.3988-2.141,0.93255-4.5497,2.7976-2.4087,1.3988-2.4087,1.3988-1.0705,0.69941-0.80288,0.69941-0.80291,0.46628-0.53526,0.46627z"/>
 <path id="path176" fill="#000" d="m209.15,24.922-1.0705,6.5278-0.26762,2.7976-0.8029,2.5645-0.80289,2.3314-0.53526,1.3988-1.6058-0.69941,0.80289-1.3988,0.53527-2.0982,0.53525-2.3314,0.53525-2.5645,1.0705-6.761z"/>
 <ellipse id="ellipse178" rx="3" ry="3" transform="matrix(0.2676305,0,0,0.23313723,14.848267,8.8356082)" cy="68" cx="723" fill="#000"/>
 <path id="path180" fill="#000" d="m205.67,40.542-0.53526,0.46628-0.53527,0.46627-1.0705,0.93255-1.3382,0.46627-1.3382,0.46628-0.80289,0.23314-0.53527,0-1.0705,0-0.53526-0.23314-1.3382-0.23314-1.3381-0.46627,0.80288-1.3988,1.0705,0.46628,1.0705,0.46628,0.53527,0,0.53526,0,0.80289,0,0.26763-0.23314,1.3382-0.23313,0.80289-0.46628,1.0705-0.6994,0.26763-0.23314,0.26763-0.6994z"/>
 <ellipse id="ellipse182" rx="3" ry="3" transform="matrix(0.2676305,0,0,0.23313723,14.848267,8.8356082)" cy="134" cx="710" fill="#000"/>
 <path id="path184" fill="#000" d="m195.23,42.407-0.80289-0.23313-0.26764-0.46628-1.0705-0.93255-0.80289-1.1657-0.26763-1.1657,0-0.69941-0.26764-0.69941,0-0.46627,0.26764-0.69941,0.26763-1.3988,0.53525-0.93254,1.3382,0.6994-0.26762,0.93256-0.26763,0.93255-0.26763,0.46628,0,0.46627,0,0.46627,0.26763,0.46628,0.26763,1.1657,0.53526,0.69941,0.80289,0.93255,0.53526,0.23314,0.53526,0.23312z"/>
 <ellipse id="ellipse186" rx="3" ry="3" transform="matrix(0.2676305,0,0,0.23313723,14.848267,8.8356082)" cy="141" cx="675" fill="#000"/>
 <ellipse id="ellipse188" rx="3" ry="3" transform="matrix(0.2676305,0,0,0.23313723,14.848267,8.8356082)" cy="107" cx="668" fill="#000"/>
 <path id="path190" fill="#000" d="m173.02,64.789,0.53527-0.69941,0.80289-0.69941,0.80289-0.46627,1.3382-0.93256,2.141-1.3988,2.6763-1.3988,4.5497-2.5645,2.141-1.1657-1.3382,6.761-0.26762,2.5645-0.80289,2.5645-0.53527,2.3314-0.53526,1.3988-0.53526,0.46629-0.53527,0.23313-0.80288,0.93254-1.3382,0.46629-1.0705,0.23314-0.8029,0-0.80289,0-0.26763,0-0.80289,0-1.0705-0.23314-1.6058-0.46629-0.26763-0.46627-0.53525-0.46627-1.0705-0.69942-0.26762-1.1657-0.53526-0.93255,0-0.69941,0-0.23314,0-0.6994,0-0.69942,0.53526-0.93254,0.26762-0.93256z"/>
 <path id="path192" fill="#000" d="m172.48,64.322,0.53525-0.69941,0.8029-0.46628,0.80289-0.93255,1.0705-0.69941,2.6763-1.632,2.4087-1.3988,4.5497-2.3314,2.141-1.3988,0.80289,1.3988-1.8734,1.1657-4.8174,2.3314-2.4087,1.632-2.4087,1.3988-1.0705,0.6994-0.80289,0.69941-0.53526,0.69941-0.53526,0.23314z"/>
 <path id="path194" fill="#000" d="m188.54,55.696-0.80289,6.761-0.80288,2.5645-0.53526,2.5645-0.53527,2.3314-0.80289,1.3988-1.6058-0.69941,0.8029-1.3988,0.53526-1.8651,0.8029-2.5645,0.53525-2.5645,0.8029-6.761z"/>
 <ellipse id="ellipse196" rx="3" ry="3" transform="matrix(0.2676305,0,0,0.23313723,14.848267,8.8356082)" cy="200" cx="646" fill="#000"/>
 <path id="path198" fill="#000" d="m184.79,71.55-0.26763,0.23313-0.53526,0.6994-1.0705,0.93256-1.3382,0.23314-1.3381,0.46626-0.53527,0.23314-0.80289,0-0.8029,0-0.80289-0.23314-1.3381-0.23313-1.3382-0.46627,0.80289-1.3988,1.3382,0.46627,1.0705,0.46628,0.53527,0,0.26763,0,0.80289,0,0.53526,0,0.8029-0.46628,1.3382-0.46627,0.53526-0.46627,0.53526-0.46629,0.53526-0.46627z"/>
 <ellipse id="ellipse200" rx="3" ry="3" transform="matrix(0.2676305,0,0,0.23313723,14.848267,8.8356082)" cy="266" cx="633" fill="#000"/>
 <path id="path202" fill="#000" d="m174.62,73.415-0.53525-0.46628-0.53527-0.46628-1.0705-0.93254-0.53527-1.1657-0.53526-1.1657-0.26764-0.6994,0-0.46629,0-0.6994,0.26764-0.93256,0.26763-0.93254,0.8029-1.1657,1.3382,0.6994-0.53526,0.93256-0.53526,0.93255,0,0.46628,0,0.6994,0,0.23314,0.26762,0.46628,0.26764,1.1657,0.53526,0.69941,0.80289,0.93256,0.26763,0.23313,0.53526,0.23314z"/>
 <ellipse id="ellipse204" rx="3" ry="3" transform="matrix(0.2676305,0,0,0.23313723,14.848267,8.8356082)" cy="273" cx="599" fill="#000"/>
 <ellipse id="ellipse206" rx="3" ry="3" transform="matrix(0.2676305,0,0,0.23313723,14.848267,8.8356082)" cy="239" cx="592" fill="#000"/>
 <path id="path208" fill="#000" d="m221.99,63.157,0.53525-0.46627,0.8029-0.69942,0.80289-0.46627,1.0705-0.93255,2.141-1.3988,2.6763-1.3988,4.8173-2.5645,1.8734-0.93256-1.0705,6.5278-0.53525,2.5645-0.53527,2.5645-0.80288,2.3314-0.53526,1.3988-0.26764,0.23314-0.53527,0.46628-1.0705,0.93255-1.0705,0.23314-1.0705,0.46627-0.80288,0-0.8029,0-0.53525,0-0.53527,0-1.3382-0.23314-1.3382-0.46628-0.26764-0.46628-0.53526-0.46627-1.0705-0.69942-0.53526-1.1657-0.26764-0.93256,0-0.6994-0.26762-0.46628,0.26762-0.46627,0-0.69941,0.26764-0.93255,0.53526-1.1657z"/>
 <path id="path210" fill="#000" d="m221.46,62.923,0.53526-0.69941,0.80289-0.69941,0.80289-0.69942,1.0705-0.6994,2.4087-1.632,2.6763-1.3988,4.5497-2.5645,2.1411-0.93255,0.80288,1.1657-2.141,1.1657-4.5497,2.3314-2.6763,1.3988-2.4087,1.632-0.80289,0.6994-1.0705,0.69942-0.26763,0.46627-0.8029,0.46628z"/>
 <path id="path212" fill="#000" d="m237.52,54.297-0.80289,6.761-0.8029,2.5645-0.53525,2.5645-0.53527,2.0982-0.80289,1.632-1.6058-0.69941,0.80291-1.3988,0.53526-1.8651,0.53524-2.7976,0.80291-2.3314,0.80288-6.761z"/>
 <ellipse id="ellipse214" rx="3" ry="3" transform="matrix(0.2676305,0,0,0.23313723,14.848267,8.8356082)" cy="194" cx="829" fill="#000"/>
 <path id="path216" fill="#000" d="m233.77,69.918-0.53526,0.46628-0.26764,0.6994-1.3382,0.69942-1.0705,0.46627-1.3382,0.46627-0.80288,0.23314-0.8029,0-0.53525,0-0.80291,0-1.3382-0.46628-1.3382-0.6994,0.80289-1.1657,1.0705,0.46627,1.0705,0.46629,0.80288,0,0.26764,0,0.53526,0,0.8029,0,0.80289-0.46629,1.0705-0.46627,0.80289-0.69941,0.53526-0.23314,0.26762-0.46627z"/>
 <ellipse id="ellipse218" rx="3" ry="3" transform="matrix(0.2676305,0,0,0.23313723,14.848267,8.8356082)" cy="260" cx="816" fill="#000"/>
 <path id="path220" fill="#000" d="m223.6,71.783-0.53526-0.23313-0.80288-0.46629-0.8029-1.1657-0.80289-0.93255-0.26763-1.1657-0.26764-0.6994,0-0.69942,0-0.46627,0-0.69941,0.53527-1.1657,0.80289-1.1657,1.3382,0.69941-0.53525,0.93255-0.53527,0.93256,0,0.6994,0,0.23314,0,0.46628,0,0.46628,0.53527,0.93255,0.53525,0.93255,0.80289,0.69941,0.26764,0.46628,0.53525,0.23313z"/>
 <ellipse id="ellipse222" rx="3" ry="3" transform="matrix(0.2676305,0,0,0.23313723,14.848267,8.8356082)" cy="267" cx="782" fill="#000"/>
 <ellipse id="ellipse224" rx="3" ry="3" transform="matrix(0.2676305,0,0,0.23313723,14.848267,8.8356082)" cy="233" cx="774" fill="#000"/>
</svg>
