<?xml version="1.0" encoding="UTF-8" standalone="no"?>
<svg
   xmlns:dc="http://purl.org/dc/elements/1.1/"
   xmlns:cc="http://creativecommons.org/ns#"
   xmlns:rdf="http://www.w3.org/1999/02/22-rdf-syntax-ns#"
   xmlns:svg="http://www.w3.org/2000/svg"
   xmlns="http://www.w3.org/2000/svg"
   xmlns:sodipodi="http://sodipodi.sourceforge.net/DTD/sodipodi-0.dtd"
   xmlns:inkscape="http://www.inkscape.org/namespaces/inkscape"
   height="45"
   width="45"
   id="svg2"
   version="1.1"
   inkscape:version="0.48.2 r9819"
   sodipodi:docname="wind.svg">
  <metadata
     id="metadata10">
    <rdf:RDF>
      <cc:Work
         rdf:about="">
        <dc:format>image/svg+xml</dc:format>
        <dc:type
           rdf:resource="http://purl.org/dc/dcmitype/StillImage" />
      </cc:Work>
    </rdf:RDF>
  </metadata>
  <defs
     id="defs8" />
  <sodipodi:namedview
     pagecolor="#ffffff"
     bordercolor="#666666"
     borderopacity="1"
     objecttolerance="10"
     gridtolerance="10"
     guidetolerance="10"
     inkscape:pageopacity="0"
     inkscape:pageshadow="2"
     inkscape:window-width="640"
     inkscape:window-height="480"
     id="namedview6"
     showgrid="false"
     inkscape:zoom="2.36"
     inkscape:cx="50"
     inkscape:cy="50"
     inkscape:window-x="0"
     inkscape:window-y="0"
     inkscape:window-maximized="0"
     inkscape:current-layer="svg2" />
  <path
     d="m 27.972594,2.6298907 c -0.645662,0.075235 -3.081732,2.5647361 -7.604953,10.0813813 1.202382,0.01275 2.255635,0.673885 2.825539,1.64287 4.544729,-8.1878615 5.31586,-11.4598993 4.87931,-11.7116254 -0.02728,-0.015706 -0.05653,-0.017462 -0.09957,-0.012445 z M 20.3302,14.366609 c -0.913805,0 -1.655461,0.74271 -1.655461,1.655337 0,0.912626 0.741656,1.655336 1.655461,1.655336 0.913804,0 1.65546,-0.74271 1.65546,-1.655336 0,-0.912627 -0.741656,-1.655337 -1.65546,-1.655337 z m -2.875328,0.02489 c -9.3511497,0.165281 -12.5591461,1.127825 -12.5591461,1.630441 0,0.502216 3.207679,1.465546 12.5591461,1.630442 -0.273978,-0.480709 -0.435672,-1.03821 -0.435672,-1.630442 0,-0.591835 0.161689,-1.149337 0.435672,-1.630444 z m 5.738069,3.285779 c -0.567116,0.97018 -1.611088,1.628531 -2.813072,1.64287 4.821555,8.008624 7.255634,10.307216 7.692182,10.056288 0.435873,-0.251711 -0.337388,-3.516317 -4.879309,-11.69928 z M 3.0909787,18.498578 c -0.025181,-0.0029 -0.046208,0.0033 -0.062237,0.01245 -0.2564326,0.148568 0.201645,2.053639 2.8006047,6.770711 0.3649328,-0.549658 0.9712018,-0.917688 1.6679279,-0.97106 C 4.8819247,19.996286 3.4687568,18.542092 3.091158,18.498677 z m 25.9149133,0 c -0.02518,-0.0029 -0.0462,0.0033 -0.06224,0.01245 -0.256114,0.148559 0.201644,2.053916 2.800604,6.770709 0.365332,-0.549614 0.9716,-0.917445 1.667928,-0.970777 -2.615311,-4.314787 -4.028119,-5.768982 -4.405719,-5.812397 z m -10.331392,1.207288 0,22.751318 3.310961,0 0,-17.499328 c -0.947581,-1.401222 -2.044929,-3.129049 -3.309964,-5.25199 z m -11.0152926,5.68773 c -0.6092157,0 -1.0953547,0.486843 -1.0953547,1.095246 0,0.608405 0.486139,1.107715 1.0953547,1.107715 0.6092169,0 1.1077838,-0.49931 1.1077838,-1.107715 0,-0.608403 -0.4986056,-1.095246 -1.1077838,-1.095246 z m 25.9276596,0 c -0.609216,0 -1.107782,0.486843 -1.107782,1.095246 0,0.608405 0.498605,1.107715 1.107782,1.107715 0.609217,0 1.107783,-0.49931 1.107783,-1.107715 0,-0.608403 -0.498606,-1.095246 -1.107783,-1.095246 z M 9.6384154,25.530612 c 0.1427712,0.291137 0.2364978,0.612267 0.2364978,0.95835 0,0.348887 -0.091335,0.677668 -0.2364978,0.970777 5.3656486,-0.11271 7.2317366,-0.664006 7.2317366,-0.95835 0,-0.295519 -1.868159,-0.858098 -7.2317366,-0.970777 z m 25.9276596,0 c 0.142374,0.291137 0.22405,0.612267 0.22405,0.95835 0,0.348887 -0.08088,0.677668 -0.22405,0.970777 5.365649,-0.112718 7.231735,-0.663966 7.231735,-0.958311 0,-0.295538 -1.868078,-0.857939 -7.231735,-0.970657 z M 5.8297652,27.708518 c -2.5981828,4.716674 -3.057037,6.622541 -2.8006044,6.770709 0.2565123,0.14777 1.6789609,-1.198884 4.4686513,-5.800051 -0.6971232,-0.05377 -1.3022376,-0.420605 -1.6679273,-0.970658 z m 25.9149138,0 c -2.598581,4.716674 -3.057038,6.620948 -2.800525,6.770709 0.256113,0.147371 1.67928,-1.197689 4.468651,-5.800051 -0.697841,-0.05377 -1.302477,-0.420605 -1.668126,-0.970658 z M 8.7669105,28.716656 C 7.9105429,30.156035 7.1830666,31.290195 6.563773,32.18912 l -0.012264,10.268184 h 2.2031375 l 0.012452,-13.740568 z m 25.9276605,0 c -0.85621,1.439338 -1.59667,2.573539 -2.215606,3.472464 v 10.268184 h 2.203139 l 0.01245,-13.740568 z"
     id="path4"
     inkscape:connector-curvature="0" />
</svg>
